<svg width="60" height="60" viewBox="0 0 60 60" fill="none" xmlns="http://www.w3.org/2000/svg">
<path d="M11.25 60H7.5V52.5H0V48.75H11.25V60ZM56.25 52.5H52.5V60H48.75V48.75H56.25V52.5ZM22.5 52.5H15V48.75H22.5V52.5ZM33.75 52.5H26.25V48.75H33.75V52.5ZM45 52.5H37.5V48.75H45V52.5ZM60.001 52.5H56.251V48.75H60.001V52.5ZM11.25 45H7.5V37.5H11.25V45ZM37.5 45H22.5V41.25H37.5V45ZM52.5 45H48.75V37.5H52.5V45ZM22.5 41.25H18.75V37.5H22.5V41.25ZM41.25 41.25H37.5V37.5H41.25V41.25ZM18.75 37.5H15V22.5H18.75V37.5ZM45 37.5H41.25V22.5H45V37.5ZM11.25 33.75H7.5V26.25H11.25V33.75ZM52.5 33.75H48.75V26.25H52.5V33.75ZM11.25 22.5H7.5V15H11.25V22.5ZM22.5 22.5H18.75V18.75H22.5V22.5ZM41.25 22.5H37.5V18.75H41.25V22.5ZM52.5 22.5H48.75V15H52.5V22.5ZM37.5 18.75H22.5V15H37.5V18.75ZM11.25 11.25H0V7.5H7.5V0H11.25V11.25ZM22.5 11.25H15V7.5H22.5V11.25ZM33.75 11.25H26.25V7.5H33.75V11.25ZM45 11.25H37.5V7.5H45V11.25ZM52.5 7.5H60V11.25H48.75V0H52.5V7.5Z" fill="black"/>
</svg>
