<svg width="60" height="66" viewBox="0 0 60 66" fill="none" xmlns="http://www.w3.org/2000/svg">
<g filter="url(#filter0_d_504_62)">
<path d="M45 60H15V52.5H45V60ZM15 52.5H7.5V45H15V52.5ZM45 45H52.5V52.5H45V45.75H37.5V30.75H30V37.5H22.5V30H30V23.25H15V15.75H45V45ZM15 15.75H7.5V45H0V15H7.5V8.25H15V15.75ZM22.5 45H15V37.5H22.5V45ZM60 45H52.5V15H60V45ZM52.5 15H45V7.5H52.5V15ZM45 0V7.5H15V0H45Z" fill="#050403"/>
</g>
<defs>
<filter id="filter0_d_504_62" x="0" y="0" width="60" height="66" filterUnits="userSpaceOnUse" color-interpolation-filters="sRGB">
<feFlood flood-opacity="0" result="BackgroundImageFix"/>
<feColorMatrix in="SourceAlpha" type="matrix" values="0 0 0 0 0 0 0 0 0 0 0 0 0 0 0 0 0 0 127 0" result="hardAlpha"/>
<feOffset dy="6"/>
<feComposite in2="hardAlpha" operator="out"/>
<feColorMatrix type="matrix" values="0 0 0 0 0.980392 0 0 0 0 0.839216 0 0 0 0 1 0 0 0 1 0"/>
<feBlend mode="normal" in2="BackgroundImageFix" result="effect1_dropShadow_504_62"/>
<feBlend mode="normal" in="SourceGraphic" in2="effect1_dropShadow_504_62" result="shape"/>
</filter>
</defs>
</svg>
