<svg width="128" height="120" viewBox="0 0 128 120" fill="none" xmlns="http://www.w3.org/2000/svg">
<rect x="8" y="16" width="8" height="8" fill="black"/>
<rect x="16" y="8" width="8" height="8" fill="black"/>
<rect x="24" width="8" height="8" fill="black"/>
<rect x="32" width="8" height="8" fill="black"/>
<rect x="40" width="8" height="8" fill="black"/>
<rect x="48" width="8" height="8" fill="black"/>
<rect x="56" width="8" height="8" fill="black"/>
<rect x="64" width="8" height="8" fill="black"/>
<rect x="72" width="8" height="8" fill="black"/>
<rect x="80" width="8" height="8" fill="black"/>
<rect x="88" width="8" height="8" fill="black"/>
<rect x="96" width="8" height="8" fill="black"/>
<rect x="104" y="8" width="8" height="8" fill="black"/>
<rect x="112" y="16" width="8" height="8" fill="black"/>
<rect x="120" y="24" width="8" height="8" fill="black"/>
<rect x="120" y="32" width="8" height="8" fill="black"/>
<rect x="120" y="40" width="8" height="8" fill="black"/>
<rect x="120" y="48" width="8" height="8" fill="black"/>
<rect x="96" y="56" width="8" height="8" fill="black"/>
<rect x="104" y="56" width="8" height="8" fill="black"/>
<rect x="112" y="56" width="8" height="8" fill="black"/>
<rect x="88" y="56" width="8" height="8" fill="black"/>
<rect x="80" y="56" width="8" height="8" fill="black"/>
<rect x="72" y="56" width="8" height="8" fill="black"/>
<rect x="64" y="48" width="8" height="8" fill="black"/>
<rect x="56" y="40" width="8" height="8" fill="black"/>
<rect x="48" y="32" width="8" height="8" fill="black"/>
<rect x="48" y="40" width="8" height="8" fill="black"/>
<rect x="48" y="48" width="8" height="8" fill="black"/>
<rect x="48" y="56" width="8" height="8" fill="black"/>
<rect x="40" y="64" width="8" height="8" fill="black"/>
<rect x="32" y="72" width="8" height="8" fill="black"/>
<rect x="24" y="72" width="8" height="8" fill="black"/>
<rect x="16" y="80" width="8" height="8" fill="black"/>
<rect x="16" y="88" width="8" height="8" fill="black"/>
<rect x="8" y="96" width="8" height="8" fill="black"/>
<rect y="88" width="8" height="8" fill="black"/>
<rect y="80" width="8" height="8" fill="black"/>
<rect y="72" width="8" height="8" fill="black"/>
<rect y="64" width="8" height="8" fill="black"/>
<rect y="56" width="8" height="8" fill="black"/>
<rect y="48" width="8" height="8" fill="black"/>
<rect y="40" width="8" height="8" fill="black"/>
<rect y="32" width="8" height="8" fill="black"/>
<rect y="24" width="8" height="8" fill="black"/>
<rect x="16" y="104" width="8" height="8" fill="black"/>
<rect x="24" y="112" width="8" height="8" fill="black"/>
<rect x="32" y="112" width="8" height="8" fill="black"/>
<rect x="40" y="112" width="8" height="8" fill="black"/>
<rect x="48" y="112" width="8" height="8" fill="black"/>
<rect x="56" y="112" width="8" height="8" fill="black"/>
<rect x="64" y="112" width="8" height="8" fill="black"/>
<rect x="72" y="112" width="8" height="8" fill="black"/>
<rect x="64" y="96" width="8" height="8" fill="black"/>
<rect x="64" y="72" width="8" height="8" transform="rotate(90 64 72)" fill="black"/>
<rect x="88" y="72" width="8" height="8" fill="black"/>
<rect x="88" y="80" width="8" height="8" fill="black"/>
<rect x="72" y="96" width="8" height="8" fill="black"/>
<rect x="80" y="96" width="8" height="8" fill="black"/>
<rect x="64" y="80" width="8" height="8" transform="rotate(90 64 80)" fill="black"/>
<rect x="80" y="112" width="8" height="8" fill="black"/>
<rect x="88" y="112" width="8" height="8" fill="black"/>
<rect x="96" y="104" width="8" height="8" fill="black"/>
<rect x="112" y="96" width="8" height="8" fill="black"/>
<rect x="104" y="104" width="8" height="8" fill="black"/>
<rect x="112" y="88" width="8" height="8" fill="black"/>
<rect x="104" y="80" width="8" height="8" fill="black"/>
<rect x="104" y="72" width="8" height="8" fill="black"/>
<rect x="104" y="64" width="8" height="8" fill="black"/>
<rect x="32" y="80" width="8" height="8" fill="black"/>
</svg>
