<svg width="37" height="37" viewBox="0 0 37 37" fill="none" xmlns="http://www.w3.org/2000/svg">
<g filter="url(#filter0_dii_505_818)">
<rect width="35" height="35" fill="#FFC0C1"/>
<path d="M12.25 26.25H8.75V22.75H12.25V26.25ZM26.25 26.25H22.75V22.75H26.25V26.25ZM15.75 22.75H12.25V19.25H15.75V22.75ZM22.75 22.75H19.25V19.25H22.75V22.75ZM19.25 19.25H15.75V15.75H19.25V19.25ZM15.75 15.75H12.25V12.25H15.75V15.75ZM22.75 15.75H19.25V12.25H22.75V15.75ZM12.25 12.25H8.75V8.75H12.25V12.25ZM26.25 8.75V12.25H22.75V8.75H26.25Z" fill="black"/>
</g>
<defs>
<filter id="filter0_dii_505_818" x="-0.583333" y="-0.583333" width="36.75" height="36.75" filterUnits="userSpaceOnUse" color-interpolation-filters="sRGB">
<feFlood flood-opacity="0" result="BackgroundImageFix"/>
<feColorMatrix in="SourceAlpha" type="matrix" values="0 0 0 0 0 0 0 0 0 0 0 0 0 0 0 0 0 0 127 0" result="hardAlpha"/>
<feOffset dx="1.16667" dy="1.16667"/>
<feComposite in2="hardAlpha" operator="out"/>
<feColorMatrix type="matrix" values="0 0 0 0 0 0 0 0 0 0 0 0 0 0 0 0 0 0 1 0"/>
<feBlend mode="normal" in2="BackgroundImageFix" result="effect1_dropShadow_505_818"/>
<feBlend mode="normal" in="SourceGraphic" in2="effect1_dropShadow_505_818" result="shape"/>
<feColorMatrix in="SourceAlpha" type="matrix" values="0 0 0 0 0 0 0 0 0 0 0 0 0 0 0 0 0 0 127 0" result="hardAlpha"/>
<feOffset dx="-1.75" dy="-1.75"/>
<feGaussianBlur stdDeviation="0.291667"/>
<feComposite in2="hardAlpha" operator="arithmetic" k2="-1" k3="1"/>
<feColorMatrix type="matrix" values="0 0 0 0 0 0 0 0 0 0 0 0 0 0 0 0 0 0 0.3 0"/>
<feBlend mode="normal" in2="shape" result="effect2_innerShadow_505_818"/>
<feColorMatrix in="SourceAlpha" type="matrix" values="0 0 0 0 0 0 0 0 0 0 0 0 0 0 0 0 0 0 127 0" result="hardAlpha"/>
<feOffset dx="1.75" dy="1.75"/>
<feGaussianBlur stdDeviation="0.291667"/>
<feComposite in2="hardAlpha" operator="arithmetic" k2="-1" k3="1"/>
<feColorMatrix type="matrix" values="0 0 0 0 1 0 0 0 0 1 0 0 0 0 1 0 0 0 0.75 0"/>
<feBlend mode="normal" in2="effect2_innerShadow_505_818" result="effect3_innerShadow_505_818"/>
</filter>
</defs>
</svg>
