<svg width="67" height="61" viewBox="0 0 67 61" fill="none" xmlns="http://www.w3.org/2000/svg">
<path d="M67 0V60.2998H0V0H67ZM6.7002 53.5996H60.2998V20.0996H6.7002V53.5996ZM29.4805 50.25H24.1201V44.8896H29.4805V50.25ZM42.8799 50.25H37.5195V44.8896H42.8799V50.25ZM24.1201 44.8896H18.7598V39.5303H24.1201V44.8896ZM48.2402 44.8896H42.8799V39.5303H48.2402V44.8896ZM18.7598 39.5303H13.4004V34.1699H18.7598V39.5303ZM53.5996 39.5303H48.2402V34.1699H53.5996V39.5303ZM24.1201 34.1699H18.7598V28.8096H24.1201V34.1699ZM48.2402 34.1699H42.8799V28.8096H48.2402V34.1699ZM29.4805 28.8096H24.1201V23.4502H29.4805V28.8096ZM42.8799 28.8096H37.5195V23.4502H42.8799V28.8096ZM6.7002 13.4004H60.2998V6.7002H6.7002V13.4004Z" fill="black"/>
</svg>
