<svg width="202" height="188" viewBox="0 0 202 188" fill="none" xmlns="http://www.w3.org/2000/svg">
<rect x="19.7617" y="67.1333" width="13.4476" height="13.4476" fill="black"/>
<rect x="127.492" y="67.1333" width="13.4476" height="13.4476" fill="black"/>
<rect x="33.2266" y="67.1333" width="13.4476" height="13.4476" fill="black"/>
<rect x="140.961" y="67.1333" width="13.4476" height="13.4476" fill="black"/>
<rect x="46.6934" y="67.1333" width="13.4476" height="13.4476" fill="black"/>
<rect x="154.43" y="67.1333" width="13.4476" height="13.4476" fill="black"/>
<path d="M148.124 53.7148H134.676V26.8477H148.124V53.7148ZM161.599 53.7148H148.132V44.7617H161.599V53.7148ZM175.068 53.7148H161.602V44.7617H175.068V53.7148ZM161.589 40.2949H148.142V26.8477H161.589V40.2949ZM175.059 40.2949H161.611V0H175.059V40.2949ZM161.599 8.95215H134.666V0H161.599V8.95215Z" fill="#B5B8FA"/>
<path d="M53.8545 40.2676H53.8662V53.7148H40.418V40.2949H40.4072V0H53.8545V40.2676ZM40.3799 26.8662H26.9316V13.4189H40.3799V26.8662Z" fill="#B5B8FA"/>
<rect x="60.1621" y="67.1333" width="13.4476" height="13.4476" fill="black"/>
<rect x="167.895" y="67.1333" width="13.4476" height="13.4476" fill="black"/>
<rect x="60.1621" y="80.562" width="13.4476" height="13.4476" fill="black"/>
<rect x="167.895" y="80.562" width="13.4476" height="13.4476" fill="black"/>
<rect x="60.1621" y="93.9902" width="13.4476" height="13.4476" fill="black"/>
<rect x="167.895" y="93.9902" width="13.4476" height="13.4476" fill="black"/>
<rect x="46.6934" y="93.9902" width="13.4476" height="13.4476" fill="black"/>
<rect x="154.43" y="93.9902" width="13.4476" height="13.4476" fill="black"/>
<rect x="33.2266" y="93.9902" width="13.4476" height="13.4476" fill="black"/>
<rect x="140.961" y="93.9902" width="13.4476" height="13.4476" fill="black"/>
<rect x="19.7617" y="93.9902" width="13.4476" height="13.4476" fill="black"/>
<rect x="127.492" y="93.9902" width="13.4476" height="13.4476" fill="black"/>
<rect x="19.7617" y="80.562" width="13.4476" height="13.4476" fill="black"/>
<rect x="127.492" y="80.562" width="13.4476" height="13.4476" fill="black"/>
<rect x="33.2266" y="80.562" width="13.4476" height="13.4476" fill="#B5B8FA"/>
<rect x="140.961" y="80.562" width="13.4476" height="13.4476" fill="#B5B8FA"/>
<rect x="46.6934" y="80.562" width="13.4476" height="13.4476" fill="#B5B8FA"/>
<rect x="154.43" y="80.562" width="13.4476" height="13.4476" fill="#B5B8FA"/>
<rect x="40.4102" y="107.419" width="13.4476" height="13.4476" fill="black"/>
<rect x="148.143" y="107.419" width="13.4476" height="13.4476" fill="black"/>
<rect x="40.4102" y="120.848" width="13.4476" height="13.4476" fill="black"/>
<rect x="148.143" y="120.848" width="13.4476" height="13.4476" fill="black"/>
<rect x="53.875" y="120.848" width="13.4476" height="13.4476" fill="black"/>
<rect x="161.613" y="120.848" width="13.4476" height="13.4476" fill="black"/>
<rect width="13.4476" height="13.4476" transform="matrix(-1 0 0 1 40.3906 120.848)" fill="black"/>
<rect width="13.4476" height="13.4476" transform="matrix(-1 0 0 1 148.123 120.848)" fill="black"/>
<rect width="13.4476" height="13.4476" transform="matrix(-1 0 0 1 40.3906 134.276)" fill="black"/>
<rect width="13.4476" height="13.4476" transform="matrix(-1 0 0 1 148.123 134.276)" fill="black"/>
<rect width="13.4476" height="13.4476" transform="matrix(-1 0 0 1 53.8555 134.276)" fill="black"/>
<rect width="13.4476" height="13.4476" transform="matrix(-1 0 0 1 161.594 134.276)" fill="black"/>
<rect width="13.4476" height="13.4476" transform="matrix(-1 0 0 1 67.3262 134.276)" fill="black"/>
<rect width="13.4476" height="13.4476" transform="matrix(-1 0 0 1 175.059 134.276)" fill="black"/>
<rect width="13.4476" height="13.4476" transform="matrix(-1 0 0 1 67.3262 147.705)" fill="black"/>
<rect width="13.4476" height="13.4476" transform="matrix(-1 0 0 1 175.059 147.705)" fill="black"/>
<rect x="26.9453" y="147.705" width="13.4476" height="13.4476" fill="black"/>
<rect x="134.678" y="147.705" width="13.4476" height="13.4476" fill="black"/>
<rect width="13.4476" height="13.4476" transform="matrix(-1 0 0 1 67.3262 161.133)" fill="black"/>
<rect width="13.4476" height="13.4476" transform="matrix(-1 0 0 1 175.059 161.133)" fill="black"/>
<rect x="26.9453" y="161.133" width="13.4476" height="13.4476" fill="black"/>
<rect x="134.678" y="161.133" width="13.4476" height="13.4476" fill="black"/>
<rect width="13.4476" height="13.4476" transform="matrix(-1 0 0 1 67.3262 174.552)" fill="black"/>
<rect width="13.4476" height="13.4476" transform="matrix(-1 0 0 1 175.059 174.552)" fill="black"/>
<rect x="26.9453" y="174.552" width="13.4476" height="13.4476" fill="black"/>
<rect x="134.678" y="174.552" width="13.4476" height="13.4476" fill="black"/>
<rect width="13.4476" height="13.4476" transform="matrix(-1 0 0 1 80.791 174.552)" fill="black"/>
<rect width="13.4476" height="13.4476" transform="matrix(-1 0 0 1 188.523 174.552)" fill="black"/>
<rect x="13.4785" y="174.552" width="13.4476" height="13.4476" fill="black"/>
<rect x="121.211" y="174.552" width="13.4476" height="13.4476" fill="black"/>
<rect x="67.3438" y="120.848" width="13.4476" height="13.4476" fill="black"/>
<rect x="175.078" y="120.848" width="13.4476" height="13.4476" fill="black"/>
<rect width="13.4476" height="13.4476" transform="matrix(-1 0 0 1 26.9258 120.848)" fill="black"/>
<rect width="13.4476" height="13.4476" transform="matrix(-1 0 0 1 134.658 120.848)" fill="black"/>
<rect x="80.8105" y="120.848" width="13.4476" height="13.4476" fill="black"/>
<rect x="188.555" y="120.848" width="13.4476" height="13.4476" fill="black"/>
<rect width="13.4476" height="13.4476" transform="matrix(-1 0 0 1 13.4473 120.848)" fill="black"/>
<rect width="13.4476" height="13.4476" transform="matrix(-1 0 0 1 121.191 120.848)" fill="black"/>
<rect x="80.8105" y="134.276" width="13.4476" height="13.4476" fill="black"/>
<rect x="188.543" y="107.419" width="13.4476" height="13.4476" fill="black"/>
<rect width="13.4476" height="13.4476" transform="matrix(-1 0 0 1 13.459 134.276)" fill="black"/>
<rect width="13.4476" height="13.4476" transform="matrix(-1 0 0 1 121.191 107.419)" fill="black"/>
</svg>
