<svg width="216" height="95" viewBox="0 0 216 95" fill="none" xmlns="http://www.w3.org/2000/svg">
<g clip-path="url(#clip0_680_2638)">
<path d="M41.48 93.2396H8C3.58173 93.2396 0 89.658 0 85.2396V54.9997C0 50.5815 3.58172 46.9998 8 46.9998H41.48V68.7597H22.1V61.9597C22.1 61.2086 21.4911 60.5997 20.74 60.5997C19.9889 60.5997 19.38 61.2086 19.38 61.9597V75.5597C19.38 76.3108 19.9889 76.9197 20.74 76.9197C21.4911 76.9197 22.1 76.3108 22.1 75.5597V71.4797H41.48V93.2396Z" fill="#9DD4FF"/>
<path d="M72.0753 93.2394H52.6953V60.5995H44.1953V46.9996H80.5753V60.5995H72.0753V93.2394Z" fill="#9DD4FF"/>
<path d="M123.771 51.5233C124.538 52.9781 124.753 54.6367 124.753 56.2815V93.2394H105.373V83.7195H102.653V93.2394H83.2734V55.8417C83.2734 54.4858 83.4178 53.1187 84.0046 51.8965C84.439 50.9925 85.0866 49.9127 85.9998 48.9996C87.9998 46.9995 90.0734 46.9996 90.0734 46.9996H117.953C117.953 46.9996 120.18 47.1361 122 48.9995C122.736 49.7536 123.328 50.6835 123.771 51.5233ZM102.653 72.8395C102.653 73.5906 103.262 74.1995 104.013 74.1995C104.764 74.1995 105.373 73.5906 105.373 72.8395V61.9595C105.373 61.2084 104.764 60.5995 104.013 60.5995C103.262 60.5995 102.653 61.2084 102.653 61.9595V72.8395Z" fill="#9DD4FF"/>
<path d="M170.308 85.0795C162.844 89.4115 148.208 85.0795 148.208 85.0795V93.2394H128.828V46.9996H170.308C170.308 46.9996 183.17 77.6149 170.308 85.0795ZM149.568 72.8395C150.319 72.8395 150.928 72.2306 150.928 71.4795V60.5995C150.928 59.8484 150.319 59.2395 149.568 59.2395C148.817 59.2395 148.208 59.8484 148.208 60.5995V71.4795C148.208 72.2306 148.817 72.8395 149.568 72.8395Z" fill="#9DD4FF"/>
<path d="M204.903 93.2394H185.523V60.5995H177.023V46.9996H213.403V60.5995H204.903V93.2394Z" fill="#9DD4FF"/>
</g>
<path d="M39.2 21V37L34.2 42H27.7V34H2.5V21.5H4.5V8.53553C4.5 6.27177 5.39928 4.10072 7 2.5C8.60072 0.899277 10.7718 0 13.0355 0H27C31.4183 0 35 3.58172 35 8V21H39.2ZM18.75 25C18.75 25.5523 19.1977 26 19.75 26C20.3023 26 20.75 25.5523 20.75 25V11C20.75 10.4477 20.3023 10 19.75 10C19.1977 10 18.75 10.4477 18.75 11V25Z" fill="white"/>
<path d="M87.9453 31C87.9453 32.6569 86.6022 34 84.9453 34H60.4453C58.7885 34 57.4453 32.6569 57.4453 31V22H55.4453V34H41.1953V0H55.4453V12H57.4453V3C57.4453 1.34315 58.7885 0 60.4453 0H84.9453C86.6022 0 87.9453 1.34315 87.9453 3V31ZM72.6953 24C73.2476 24 73.6953 23.5523 73.6953 23V11C73.6953 10.4477 73.2476 10 72.6953 10C72.143 10 71.6953 10.4477 71.6953 11V23C71.6953 23.5523 72.143 24 72.6953 24Z" fill="white"/>
<path d="M121.451 34H94.9512C92.742 34 90.9512 32.2091 90.9512 30V4C90.9512 1.79086 92.742 0 94.9512 0H121.451V16H107.201V11C107.201 10.4477 106.753 10 106.201 10C105.649 10 105.201 10.4477 105.201 11V21C105.201 21.5523 105.649 22 106.201 22C106.753 22 107.201 21.5523 107.201 21V18H121.451V34Z" fill="white"/>
<path d="M171.197 0V34H124.447V0H138.697V24H140.697V0H154.947V24H156.947V0H171.197Z" fill="white"/>
<path d="M0 21H11V42H5L0 37V21Z" fill="white"/>
<defs>
<clipPath id="clip0_680_2638">
<rect width="216" height="48" fill="white" transform="translate(0 47)"/>
</clipPath>
</defs>
</svg>
