<svg width="302" height="297" viewBox="0 0 302 297" fill="none" xmlns="http://www.w3.org/2000/svg">
<path d="M172.577 0H71.9102V28.2649H172.577V0Z" fill="#306082"/>
<path d="M71.9084 14.1326H57.5273V70.6623H71.9084V14.1326Z" fill="#306082"/>
<path d="M186.959 14.1326H172.578V127.192H186.959V14.1326Z" fill="#306082"/>
<path d="M57.5255 28.2649H43.1445V70.6622H57.5255V28.2649Z" fill="#306082"/>
<path d="M100.672 28.2649H71.9102V56.5298H100.672V28.2649Z" fill="white"/>
<path d="M172.573 28.2649H100.668V70.6622H172.573V28.2649Z" fill="#306082"/>
<path d="M201.33 28.2649H186.949V113.06H201.33V28.2649Z" fill="#306082"/>
<path d="M100.672 56.53H71.9102V70.6625H100.672V56.53Z" fill="#306082"/>
<path d="M172.575 70.6616H115.051V141.324H172.575V70.6616Z" fill="#306082"/>
<path d="M115.048 84.7949H28.7617V141.325H115.048V84.7949Z" fill="#306082"/>
<path d="M273.247 84.7949H215.723V211.987H273.247V84.7949Z" fill="#FFCE3D"/>
<path d="M28.762 98.9272H0V183.722H28.762V98.9272Z" fill="#306082"/>
<path d="M287.623 98.9272H273.242V197.854H287.623V98.9272Z" fill="#FFCE3D"/>
<path d="M301.998 113.06H287.617V183.722H301.998V113.06Z" fill="#FFCE3D"/>
<path d="M215.713 127.192H201.332V211.987H215.713V127.192Z" fill="#FFCE3D"/>
<path d="M100.667 141.324H28.7617V155.457H100.667V141.324Z" fill="#306082"/>
<path d="M201.33 141.324H186.949V211.987H201.33V141.324Z" fill="#FFCE3D"/>
<path d="M86.2858 155.456H28.7617V211.986H86.2858V155.456Z" fill="#306082"/>
<path d="M186.956 155.456H115.051V282.648H186.956V155.456Z" fill="#FFCE3D"/>
<path d="M115.049 169.59H100.668V268.517H115.049V169.59Z" fill="#FFCE3D"/>
<path d="M28.7638 183.722H14.3828V197.854H28.7638V183.722Z" fill="#306082"/>
<path d="M258.854 226.119H186.949V240.252H258.854V226.119Z" fill="#FFCE3D"/>
<path d="M201.33 240.251H186.949V296.781H201.33V240.251Z" fill="#FFCE3D"/>
<path d="M230.094 240.251H201.332V268.516H230.094V240.251Z" fill="white"/>
<path d="M258.852 240.251H230.09V268.516H258.852V240.251Z" fill="#FFCE3D"/>
<path d="M244.475 268.516H201.332V282.648H244.475V268.516Z" fill="#FFCE3D"/>
<path d="M186.946 282.649H129.422V296.782H186.946V282.649Z" fill="#FFCE3D"/>
<path d="M230.094 282.649H201.332V296.782H230.094V282.649Z" fill="#FFCE3D"/>
</svg>
