<svg width="86" height="61" viewBox="0 0 86 61" fill="none" xmlns="http://www.w3.org/2000/svg">
<path d="M26.792 60.6094H21.582V55.3994H26.792V60.6094ZM32.166 60.6094H26.9561V40.3262H32.166V60.6094ZM53.667 45.377H53.668V60.6094H48.458V45.5371H48.4561V40.3262H53.667V45.377ZM59.0439 60.6094H53.834V55.3994H59.0439V60.6094ZM21.416 45.5371H16.2061V10.0215H21.416V45.5371ZM26.792 45.5371H21.582V40.3262H26.792V45.5371ZM37.542 45.5371H32.332V40.3262H37.542V45.5371ZM42.917 45.5371H37.7061V40.3262H42.917V45.5371ZM48.293 45.5371H43.082V40.3262H48.293V45.5371ZM59.041 45.5371H53.8311V40.3262H59.041V45.5371ZM64.417 45.5371H59.207V40.3262H64.417V45.5371ZM69.791 45.5371H64.5811V10.0215H69.791V45.5371ZM5.20996 27.6992H5.29199V37.9609H0.0810547V27.8594H0V22.6484H5.20996V27.6992ZM85.917 32.75H86V37.9609H80.79V32.9102H80.707V22.6484H85.917V32.75ZM32.166 32.9102H26.9561V22.6484H32.166V32.9102ZM59.041 32.9102H53.8311V22.6484H59.041V32.9102ZM10.668 27.8594H5.45703V22.6484H10.668V27.8594ZM16.042 27.8594H10.832V22.6484H16.042V27.8594ZM75.167 27.8594H69.957V22.6484H75.167V27.8594ZM80.542 27.8594H75.3311V22.6484H80.542V27.8594ZM26.792 15.2324H21.582V10.0215H26.792V15.2324ZM32.166 15.2324H26.9561V0H32.166V15.2324ZM37.542 15.2324H32.332V10.0215H37.542V15.2324ZM42.917 15.2324H37.7061V10.0215H42.917V15.2324ZM48.293 15.2324H43.082V10.0215H48.293V15.2324ZM53.667 15.2324H48.4561V0H53.667V15.2324ZM59.041 15.2324H53.8311V10.0215H59.041V15.2324ZM64.417 15.2324H59.207V10.0215H64.417V15.2324Z" fill="#050403"/>
</svg>
