<svg width="180" height="320" viewBox="0 0 180 320" fill="none" xmlns="http://www.w3.org/2000/svg">
<path d="M25.5912 0H12.7969V63.9714H25.5912V0Z" fill="black"/>
<path d="M166.327 0H153.533V63.9714H166.327V0Z" fill="black"/>
<path d="M38.3822 12.7947H25.5879V25.589H38.3822V12.7947Z" fill="black"/>
<path d="M153.531 12.7947H140.736V25.589H153.531V12.7947Z" fill="black"/>
<path d="M38.3822 25.5886H25.5879V102.354H38.3822V25.5886Z" fill="#E69E19"/>
<path d="M140.739 25.5886H38.3848V38.3829H140.739V25.5886Z" fill="black"/>
<path d="M153.531 25.5886H140.736V102.354H153.531V25.5886Z" fill="#E69E19"/>
<path d="M140.739 38.3831H38.3848V51.1773H140.739V38.3831Z" fill="#E69E19"/>
<path d="M51.1791 51.177H38.3848V89.5599H51.1791V51.177Z" fill="#E69E19"/>
<path d="M76.7644 51.177H51.1758V63.9713H76.7644V51.177Z" fill="white"/>
<path d="M102.352 51.177H76.7637V76.7656H102.352V51.177Z" fill="#E69E19"/>
<path d="M127.946 51.177H102.357V63.9713H127.946V51.177Z" fill="white"/>
<path d="M140.74 51.177H127.945V89.5599H140.74V51.177Z" fill="#E69E19"/>
<path d="M179.119 51.177H166.324V115.148H179.119V51.177Z" fill="black"/>
<path d="M12.7943 63.9717H0V115.149H12.7943V63.9717Z" fill="black"/>
<path d="M25.5912 63.9717H12.7969V115.149H25.5912V63.9717Z" fill="#E69E19"/>
<path d="M63.9701 63.9717H51.1758V102.355H63.9701V63.9717Z" fill="white"/>
<path d="M76.7669 63.9717H63.9727V76.766H76.7669V63.9717Z" fill="black"/>
<path d="M115.152 63.9717H102.357V115.149H115.152V63.9717Z" fill="white"/>
<path d="M127.943 63.9717H115.148V76.766H127.943V63.9717Z" fill="black"/>
<path d="M166.327 63.9717H153.533V115.149H166.327V63.9717Z" fill="#E69E19"/>
<path d="M76.7669 76.7656H63.9727V115.148H76.7669V76.7656Z" fill="white"/>
<path d="M102.352 76.7656H76.7637V89.5599H102.352V76.7656Z" fill="black"/>
<path d="M127.943 76.7656H115.148V102.354H127.943V76.7656Z" fill="white"/>
<path d="M51.1791 89.5598H38.3848V140.737H51.1791V89.5598Z" fill="white"/>
<path d="M102.352 89.5598H76.7637V115.148H102.352V89.5598Z" fill="white"/>
<path d="M140.74 89.5598H127.945V140.737H140.74V89.5598Z" fill="white"/>
<path d="M38.3822 102.354H25.5879V127.943H38.3822V102.354Z" fill="white"/>
<path d="M63.9701 102.354H51.1758V115.149H63.9701V102.354Z" fill="black"/>
<path d="M127.943 102.354H115.148V115.149H127.943V102.354Z" fill="black"/>
<path d="M153.531 102.354H140.736V127.943H153.531V102.354Z" fill="white"/>
<path d="M25.5912 115.148H12.7969V127.943H25.5912V115.148Z" fill="black"/>
<path d="M63.9701 115.148H51.1758V140.737H63.9701V115.148Z" fill="white"/>
<path d="M115.15 115.148H63.9727V127.943H115.15V115.148Z" fill="black"/>
<path d="M127.943 115.148H115.148V140.737H127.943V115.148Z" fill="white"/>
<path d="M166.327 115.148H153.533V127.943H166.327V115.148Z" fill="black"/>
<path d="M38.3822 127.943H25.5879V140.737H38.3822V127.943Z" fill="black"/>
<path d="M115.15 127.943H63.9727V140.737H115.15V127.943Z" fill="white"/>
<path d="M153.531 127.943H140.736V140.737H153.531V127.943Z" fill="black"/>
<path d="M140.739 140.737H38.3848V153.531H140.739V140.737Z" fill="black"/>
<path d="M25.5886 153.531H0V166.326H25.5886V153.531Z" fill="black"/>
<path d="M63.9733 153.531H38.3848V166.326H63.9733V153.531Z" fill="black"/>
<path d="M115.15 153.531H63.9727V166.326H115.15V153.531Z" fill="#E69E19"/>
<path d="M140.737 153.531H115.148V166.326H140.737V153.531Z" fill="black"/>
<path d="M12.7943 166.325H0V230.297H12.7943V166.325Z" fill="black"/>
<path d="M25.5912 166.325H12.7969V191.914H25.5912V166.325Z" fill="white"/>
<path d="M51.1765 166.325H25.5879V204.708H51.1765V166.325Z" fill="black"/>
<path d="M63.9701 166.325H51.1758V230.297H63.9701V166.325Z" fill="#E69E19"/>
<path d="M76.7669 166.325H63.9727V230.297H76.7669V166.325Z" fill="black"/>
<path d="M89.558 166.325H76.7637V179.12H89.558V166.325Z" fill="#E69E19"/>
<path d="M102.355 166.325H89.5605V243.091H102.355V166.325Z" fill="white"/>
<path d="M115.152 166.325H102.357V230.297H115.152V166.325Z" fill="black"/>
<path d="M127.943 166.325H115.148V230.297H127.943V166.325Z" fill="#E69E19"/>
<path d="M140.74 166.325H127.945V230.297H140.74V166.325Z" fill="black"/>
<path d="M89.558 179.12H76.7637V243.092H89.558V179.12Z" fill="white"/>
<path d="M25.5912 191.914H12.7969V230.297H25.5912V191.914Z" fill="#E69E19"/>
<path d="M38.3822 204.709H25.5879V243.092H38.3822V204.709Z" fill="#E69E19"/>
<path d="M51.1791 204.709H38.3848V230.298H51.1791V204.709Z" fill="black"/>
<path d="M25.5912 230.297H12.7969V243.091H25.5912V230.297Z" fill="black"/>
<path d="M51.1791 230.297H38.3848V243.091H51.1791V230.297Z" fill="#E69E19"/>
<path d="M63.9701 230.297H51.1758V319.857H63.9701V230.297Z" fill="black"/>
<path d="M76.7669 230.297H63.9727V307.063H76.7669V230.297Z" fill="#E69E19"/>
<path d="M115.152 230.297H102.357V243.091H115.152V230.297Z" fill="white"/>
<path d="M127.943 230.297H115.148V319.857H127.943V230.297Z" fill="black"/>
<path d="M51.1765 243.091H25.5879V255.886H51.1765V243.091Z" fill="black"/>
<path d="M102.352 243.091H76.7637V319.857H102.352V243.091Z" fill="black"/>
<path d="M115.152 243.091H102.357V307.063H115.152V243.091Z" fill="#E69E19"/>
<path d="M76.7669 307.063H63.9727V319.857H76.7669V307.063Z" fill="black"/>
<path d="M115.152 307.063H102.357V319.857H115.152V307.063Z" fill="black"/>
</svg>
