<svg width="66" height="68" viewBox="0 0 66 68" fill="none" xmlns="http://www.w3.org/2000/svg">
<g filter="url(#filter0_d_505_548)">
<path d="M61.2852 56.5713H66V66H56.5713V51.8574H61.2852V56.5713ZM47.1436 42.4287H51.8574V47.1426H56.5703V61.2861H51.8564V56.5713H47.1436V51.8574H42.4287V47.1426H37.7148V37.7139H47.1436V42.4287ZM23.5703 42.4287H9.42871V37.7139H23.5703V42.4287ZM33 42.4287H23.5713V37.7139H33V42.4287ZM9.42871 37.7139H4.71484V33H9.42871V37.7139ZM37.7139 37.7139H33V33H37.7139V37.7139ZM4.71387 33H0V9.42871H4.71387V33ZM42.4287 33H37.7148V9.42871H42.4287V33ZM9.42871 9.42871H4.71484V4.71387H9.42871V9.42871ZM37.7139 9.42871H33V4.71387H37.7139V9.42871ZM23.5703 4.71387H9.42871V0H23.5703V4.71387ZM33 4.71387H23.5713V0H33V4.71387Z" fill="black"/>
</g>
<defs>
<filter id="filter0_d_505_548" x="0" y="0" width="66" height="68" filterUnits="userSpaceOnUse" color-interpolation-filters="sRGB">
<feFlood flood-opacity="0" result="BackgroundImageFix"/>
<feColorMatrix in="SourceAlpha" type="matrix" values="0 0 0 0 0 0 0 0 0 0 0 0 0 0 0 0 0 0 127 0" result="hardAlpha"/>
<feOffset dy="2"/>
<feComposite in2="hardAlpha" operator="out"/>
<feColorMatrix type="matrix" values="0 0 0 0 1 0 0 0 0 0.870588 0 0 0 0 0.968627 0 0 0 1 0"/>
<feBlend mode="normal" in2="BackgroundImageFix" result="effect1_dropShadow_505_548"/>
<feBlend mode="normal" in="SourceGraphic" in2="effect1_dropShadow_505_548" result="shape"/>
</filter>
</defs>
</svg>
