<svg width="100" height="100" viewBox="0 0 100 100" fill="none" xmlns="http://www.w3.org/2000/svg">
<g filter="url(#filter0_di_505_1742)">
<rect width="97" height="97" rx="10" fill="#9DD4FF"/>
</g>
<path d="M72.998 65H69V73H67V72.999L65 73H63V71H67V63H72.998V65ZM53.002 65H59V69H61V71H62.998V72.999H59V71H57V67H51.002V63H53.002V65ZM51 65H49V63H51V65ZM51 57H47V59H51V62.999H49V61H45V55H49V51.001H51V57ZM72.998 62.999H70.998V51.001H72.998V62.999ZM31 53H29V51.001H31V53ZM35 51L36.998 51.001V51H38.998V53H31.002V51.001H33V51H35ZM41 53H39V51.001H41V53ZM44.998 53H41.002V51.001H44.998V53ZM62.998 41H61V45H57V48.999H55V53H51.002V51.001H53V47H55V43H59V41H53.002V43H51.002V39H62.998V41ZM28.998 45H25V49H28.998V51H23V43H26.998V41H28.998V45ZM31 51H29V49H31V51ZM44.998 51H42.998V49H44.998V51ZM47 51H45V49H47V51ZM72.998 51H70.998V49H72.998V51ZM75 51H73V49H75V51ZM51 48.999H45V47H49V41H51V48.999ZM75 48.999H73V39H75V48.999ZM31 43H29V41H31V43ZM38.998 41H37V43H31.002V41H35V39H38.998V41ZM41 41H39V39H41V41ZM44.998 41H41.002V39H44.998V41ZM44.998 38.999H42.998V35H44.998V38.999ZM62.998 38.999H60.998V37H59V38.999H57V35H62.998V38.999ZM75 38.999H73V27.001H75V38.999ZM51 35H49V37H45V35H47V33H51V35ZM62.998 31H61V33H55V35H51.002V33H53V31H59V29H62.998V31ZM72.998 29H69V31H63V29H67V27.001H72.998V29ZM75 27H73V25H75V27Z" fill="white"/>
<defs>
<filter id="filter0_di_505_1742" x="0" y="0" width="99.6216" height="99.6216" filterUnits="userSpaceOnUse" color-interpolation-filters="sRGB">
<feFlood flood-opacity="0" result="BackgroundImageFix"/>
<feColorMatrix in="SourceAlpha" type="matrix" values="0 0 0 0 0 0 0 0 0 0 0 0 0 0 0 0 0 0 127 0" result="hardAlpha"/>
<feOffset dx="2.62162" dy="2.62162"/>
<feComposite in2="hardAlpha" operator="out"/>
<feColorMatrix type="matrix" values="0 0 0 0 0 0 0 0 0 0 0 0 0 0 0 0 0 0 1 0"/>
<feBlend mode="normal" in2="BackgroundImageFix" result="effect1_dropShadow_505_1742"/>
<feBlend mode="normal" in="SourceGraphic" in2="effect1_dropShadow_505_1742" result="shape"/>
<feColorMatrix in="SourceAlpha" type="matrix" values="0 0 0 0 0 0 0 0 0 0 0 0 0 0 0 0 0 0 127 0" result="hardAlpha"/>
<feOffset dx="2.43436" dy="2.2471"/>
<feGaussianBlur stdDeviation="0.271525"/>
<feComposite in2="hardAlpha" operator="arithmetic" k2="-1" k3="1"/>
<feColorMatrix type="matrix" values="0 0 0 0 1 0 0 0 0 1 0 0 0 0 1 0 0 0 1 0"/>
<feBlend mode="normal" in2="shape" result="effect2_innerShadow_505_1742"/>
</filter>
</defs>
</svg>
