<svg width="100" height="100" viewBox="0 0 100 100" fill="none" xmlns="http://www.w3.org/2000/svg">
<g filter="url(#filter0_di_508_1942)">
<rect width="97" height="97" rx="10" fill="#9DC7FF"/>
</g>
<path d="M40.001 60.667H43.1104V64H39.7773V60.667H36.668V57.334H40.001V60.667ZM49.7764 60.667H46.4443V64H43.1113V60.667H46.4434V57.334H49.7764V60.667ZM66.4443 64H63.1113V60.667H66.4443V64ZM69.7783 64H66.4453V60.667H69.7783V64ZM73.1123 64H69.7793V57.334H73.1123V64ZM63.1104 60.667H59.7773V57.334H63.1104V60.667ZM33.335 54H36.667V57.333H33.334V54H30.002V50.667H33.335V54ZM53.1104 57.333H49.7773V47.334H53.1104V57.333ZM56.4443 54H59.7764V57.333H56.4434V54H53.1113V47.334H56.4443V54ZM69.7783 57.333H66.4453V54H69.7783V57.333ZM66.4443 54H63.1113V50.667H66.4443V54ZM29.999 50.667H26.666V47.333H29.999V50.667ZM43.1104 50.667H39.7773V47.334H43.1104V50.667ZM69.7783 50.667H66.4453V47.333H69.7783V50.667ZM26.665 37.333H23.333V44H26.665V47.333H23.332V44H20V34H26.665V37.333ZM39.7783 47.333H36.4453V44H39.7783V47.333ZM46.4443 47.333H43.1113V37.334H46.4443V47.333ZM53.1104 47.333H49.7773V37.334H53.1104V47.333ZM59.7764 47.333H56.4434V44H59.7764V47.333ZM76.4424 40.667H76.4443V44H73.1123V47.333H69.7793V44H73.1113V40.667H73.1094V37.334H76.4424V40.667ZM33.335 40.667H36.4443V44H33.1113V40.667H30.002V37.334H33.335V40.667ZM63.1104 44H59.7773V40.667H63.1104V44ZM66.4443 40.667H63.1113V37.333H66.4443V40.667ZM29.999 37.333H26.666V34H29.999V37.333ZM33.335 37.333H30.002V34H33.335V37.333ZM49.7764 37.333H43.1113V34H49.7764V37.333ZM53.1104 37.333H49.7773V34H53.1104V37.333ZM69.7783 37.333H66.4453V34H69.7783V37.333ZM76.4424 37.333H69.7793V34H76.4424V37.333Z" fill="white"/>
<defs>
<filter id="filter0_di_508_1942" x="0" y="0" width="99.5961" height="99.5961" filterUnits="userSpaceOnUse" color-interpolation-filters="sRGB">
<feFlood flood-opacity="0" result="BackgroundImageFix"/>
<feColorMatrix in="SourceAlpha" type="matrix" values="0 0 0 0 0 0 0 0 0 0 0 0 0 0 0 0 0 0 127 0" result="hardAlpha"/>
<feOffset dx="2.59613" dy="2.59613"/>
<feComposite in2="hardAlpha" operator="out"/>
<feColorMatrix type="matrix" values="0 0 0 0 0 0 0 0 0 0 0 0 0 0 0 0 0 0 1 0"/>
<feBlend mode="normal" in2="BackgroundImageFix" result="effect1_dropShadow_508_1942"/>
<feBlend mode="normal" in="SourceGraphic" in2="effect1_dropShadow_508_1942" result="shape"/>
<feColorMatrix in="SourceAlpha" type="matrix" values="0 0 0 0 0 0 0 0 0 0 0 0 0 0 0 0 0 0 127 0" result="hardAlpha"/>
<feOffset dx="2.41069" dy="2.22525"/>
<feGaussianBlur stdDeviation="0.268884"/>
<feComposite in2="hardAlpha" operator="arithmetic" k2="-1" k3="1"/>
<feColorMatrix type="matrix" values="0 0 0 0 1 0 0 0 0 1 0 0 0 0 1 0 0 0 1 0"/>
<feBlend mode="normal" in2="shape" result="effect2_innerShadow_508_1942"/>
</filter>
</defs>
</svg>
