<svg width="223" height="98" viewBox="0 0 223 98" fill="none" xmlns="http://www.w3.org/2000/svg">
<g clip-path="url(#clip0_513_2183)">
<path d="M42.7899 96.184H8.25264C3.69484 96.184 0 92.4893 0 87.9314V56.7365C0 52.1787 3.69483 48.4839 8.25264 48.4839H42.7899V70.931H22.7979V63.9163C22.7979 63.1414 22.1698 62.5133 21.395 62.5133C20.6201 62.5133 19.992 63.1414 19.992 63.9163V77.9457C19.992 78.7206 20.6201 79.3487 21.395 79.3487C22.1698 79.3487 22.7979 78.7206 22.7979 77.9457V73.7369H42.7899V96.184Z" fill="#000DFF"/>
<path d="M74.3522 96.184H54.3602V62.5133H45.5918V48.4839H83.1207V62.5133H74.3522V96.184Z" fill="#000DFF"/>
<path d="M127.678 53.1505C128.47 54.6512 128.692 56.3622 128.692 58.0589V96.184H108.7V86.3634H105.894V96.184H85.9023V57.6052C85.9023 56.2065 86.0513 54.7962 86.6566 53.5355C87.1048 52.6029 87.7728 51.489 88.7148 50.547C90.778 48.4838 92.9171 48.4839 92.9171 48.4839H121.678C121.678 48.4839 123.974 48.6248 125.852 50.547C126.611 51.3249 127.222 52.2841 127.678 53.1505ZM105.894 75.1398C105.894 75.9147 106.522 76.5428 107.297 76.5428C108.072 76.5428 108.7 75.9147 108.7 75.1398V63.9163C108.7 63.1414 108.072 62.5133 107.297 62.5133C106.522 62.5133 105.894 63.1414 105.894 63.9163V75.1398Z" fill="#000DFF"/>
<path d="M175.686 87.7663C167.986 92.2351 152.888 87.7663 152.888 87.7663V96.184H132.896V48.4839H175.686C175.686 48.4839 188.955 80.0661 175.686 87.7663ZM154.291 75.1398C155.066 75.1398 155.694 74.5117 155.694 73.7369V62.5133C155.694 61.7385 155.066 61.1104 154.291 61.1104C153.517 61.1104 152.888 61.7385 152.888 62.5133V73.7369C152.888 74.5117 153.517 75.1398 154.291 75.1398Z" fill="#000DFF"/>
<path d="M211.374 96.184H191.382V62.5133H182.613V48.4839H220.142V62.5133H211.374V96.184Z" fill="#000DFF"/>
</g>
<path d="M40.4371 21.6632V38.1685L35.2792 43.3264H28.5739V35.0737H2.57812V22.179H4.64129V8.80508C4.64129 6.46983 5.56896 4.23022 7.22024 2.57895C8.87151 0.927675 11.1111 0 13.4464 0H28.1045C32.5228 0 36.1045 3.58172 36.1045 8V21.6632H40.4371ZM19.3413 25.7895C19.3413 26.3592 19.8032 26.8211 20.3729 26.8211C20.9426 26.8211 21.4045 26.3592 21.4045 25.7895V11.3474C21.4045 10.7777 20.9426 10.3158 20.3729 10.3158C19.8032 10.3158 19.3413 10.7777 19.3413 11.3474V25.7895Z" fill="white"/>
<path d="M90.7218 32.0737C90.7218 33.7306 89.3787 35.0737 87.7218 35.0737H62.2586C60.6018 35.0737 59.2586 33.7306 59.2586 32.0737V22.6948H57.1955V35.0737H42.4954V0H57.1955V12.379H59.2586V3C59.2586 1.34314 60.6018 0 62.2586 0H87.7218C89.3787 0 90.7218 1.34315 90.7218 3V32.0737ZM74.9902 24.7579C75.5599 24.7579 76.0218 24.2961 76.0218 23.7263V11.3474C76.0218 10.7777 75.5599 10.3158 74.9902 10.3158C74.4205 10.3158 73.9586 10.7777 73.9586 11.3474V23.7263C73.9586 24.2961 74.4205 24.7579 74.9902 24.7579Z" fill="white"/>
<path d="M125.286 35.0737H97.8226C95.6135 35.0737 93.8226 33.2829 93.8226 31.0737V4C93.8226 1.79086 95.6135 0 97.8226 0H125.286V16.5053H110.586V11.3474C110.586 10.7777 110.124 10.3158 109.554 10.3158C108.984 10.3158 108.523 10.7777 108.523 11.3474V21.6632C108.523 22.2329 108.984 22.6948 109.554 22.6948C110.124 22.6948 110.586 22.2329 110.586 21.6632V18.5684H125.286V35.0737Z" fill="white"/>
<path d="M176.603 0V35.0737H128.376V0H143.077V24.7579H145.14V0H159.84V24.7579H161.903V0H176.603Z" fill="white"/>
<path d="M0.00222874 21.6631H11.3496V43.3263H5.16013L0.00222874 38.1684V21.6631Z" fill="white"/>
<defs>
<clipPath id="clip0_513_2183">
<rect width="222.821" height="49.5158" fill="white" transform="translate(0 48.4844)"/>
</clipPath>
</defs>
</svg>
